<svg aria-hidden="true" style="position: absolute; width: 0; height: 0; overflow: hidden;" version="1.1"
     xmlns="http://www.w3.org/2000/svg" xmlns:xlink="http://www.w3.org/1999/xlink">
    <defs>
        <symbol id="people" viewBox="0 0 32 32">
            <path fill="none" stroke-width="3" stroke-miterlimit="4" stroke-linecap="round" stroke-linejoin="round"
                  d="M22.667 28v-2.667c0-1.415-0.562-2.771-1.562-3.771s-2.357-1.562-3.771-1.562h-10.667c-1.414 0-2.771 0.562-3.771 1.562s-1.562 2.357-1.562 3.771v2.667"></path>
            <path fill="none" stroke-width="3" stroke-miterlimit="4" stroke-linecap="round" stroke-linejoin="round"
                  d="M12 14.667c2.946 0 5.333-2.388 5.333-5.333s-2.388-5.333-5.333-5.333c-2.946 0-5.333 2.388-5.333 5.333s2.388 5.333 5.333 5.333z"></path>
            <path fill="none" stroke-width="3" stroke-miterlimit="4" stroke-linecap="round" stroke-linejoin="round"
                  d="M30.667 28v-2.667c-0.001-1.182-0.394-2.33-1.118-3.264s-1.738-1.601-2.882-1.896"></path>
            <path fill="none" stroke-width="3" stroke-miterlimit="4" stroke-linecap="round" stroke-linejoin="round"
                  d="M21.333 4.173c1.147 0.294 2.164 0.961 2.89 1.896s1.12 2.086 1.12 3.27-0.394 2.335-1.12 3.27c-0.726 0.935-1.743 1.603-2.89 1.896"></path>
        </symbol>
        <symbol id="case" viewBox="0 0 32 32">
            <path fill="none" stroke-width="3" stroke-miterlimit="4" stroke-linecap="round" stroke-linejoin="round"

                  d="M26.667 9.333h-21.333c-1.473 0-2.667 1.194-2.667 2.667v13.333c0 1.473 1.194 2.667 2.667 2.667h21.333c1.473 0 2.667-1.194 2.667-2.667v-13.333c0-1.473-1.194-2.667-2.667-2.667z"></path>
            <path fill="none" stroke-width="3" stroke-miterlimit="4" stroke-linecap="round" stroke-linejoin="round"

                  d="M21.333 28v-21.333c0-0.707-0.281-1.386-0.781-1.886s-1.178-0.781-1.886-0.781h-5.333c-0.707 0-1.386 0.281-1.886 0.781s-0.781 1.178-0.781 1.886v21.333"></path>
        </symbol>
        <symbol id="graph" viewBox="0 0 32 32">
            <path fill="none" stroke-width="3" stroke-miterlimit="4" stroke-linecap="round" stroke-linejoin="round"
                  d="M24 26.667v-13.333"></path>
            <path fill="none" stroke-width="3" stroke-miterlimit="4" stroke-linecap="round" stroke-linejoin="round"
                  d="M16 26.667v-21.333"></path>
            <path fill="none" stroke-width="3" stroke-miterlimit="4" stroke-linecap="round" stroke-linejoin="round"
                  d="M8 26.667v-8"></path>
        </symbol>
        <symbol id="info" viewBox="0 0 16 16">
            <g opacity="0.64" clip-path="url(#clip0_22_496)">
                <path d="M8.00004 14.6666C11.6819 14.6666 14.6667 11.6819 14.6667 7.99998C14.6667 4.31808 11.6819 1.33331 8.00004 1.33331C4.31814 1.33331 1.33337 4.31808 1.33337 7.99998C1.33337 11.6819 4.31814 14.6666 8.00004 14.6666Z" stroke="currentColor" stroke-width="1.5" stroke-linecap="round" stroke-linejoin="round" fill="none"/>
                <path d="M8 10.6667V8" stroke-width="1.5" stroke-linecap="round" stroke-linejoin="round" />
                <path d="M8 5.33331H8.00667" stroke-width="1.5" stroke-linecap="round" stroke-linejoin="round" />
            </g>
        </symbol>
    </defs>
</svg>
